# xmcd
#
# Track frame offsets: 
#        150
#        10790
#        16370
#        27780
#        42915
#        62437
#        71420
#        82522
#        95990
#        110350
#        120785
#        135822
#        145545
#        159155
#        170045
#        183655
#        194610
#        199972
#        212562
#        226057
#        238070
#        250965
#        265177
#        277062
#        287947
#        304480
#        322042
#        343425
#        355200
#        370477
#
# Disc length: 5221 seconds
#
# Revision: 1
# Processed by: cddbd v1.5.2PL0 Copyright (c) Steve Scherf et al.
# Submitted via: ExactAudioCopyFreeDBPlugin 1.0
#
DISCID=be14631e
DTITLE=Various Artist - Der Jazz in Deutschland - Vol 1 CD 1 - vom Ca
DTITLE=kewalk zum Jazz - Die Vorgeschichte des Jazz in Deutschland
DYEAR=2008
DGENRE=Jazz
TTITLE0=Wilhelm Iff's Orchester - Ohio (Whistling Barn Dance)
TTITLE1=MizziZwerenz and Rudolpf Seibold mit Klavierbegleitung - Cakewal
TTITLE1=k [Ausschnitt]
TTITLE2=Kapelle des Apollo-Theaters, Berlin - Ltg: Paul Lincke - Negers
TTITLE2=Geburtstag (Americain Cake Walk)
TTITLE3=Albrecht Kupfernagel - Coontown Chimes (Original Cake Walk) [D
TTITLE3=ie lustigen Neger]
TTITLE4=Albrecht Kupfernagel - At A Georgia Camp Meeting [Campmeeting 
TTITLE4=Marsch]
TTITLE5=Symphonion-Metallscheibe - At A Georgia Camp Meeting (Cake Wal
TTITLE5=k)
TTITLE6=Seidler's Orchester - Ltg: Bruno Seidler-Winkler - A Coon Band 
TTITLE6=Contest (Cake Walk)
TTITLE7=Guido Gialdini, Pfeifsolo - Seidler's Orchester - Whistling Ruf
TTITLE7=us
TTITLE8=Max Laube, Pfeifsolo - Orchester, Leitg: Kapelleister Kattner /
TTITLE8=Mumblin' Moss [Mumblin' Mose]
TTITLE9=Dannenberg-Orchester - Ltg: Friedrich Kark - Happy Days In Dixi
TTITLE9=e
TTITLE10=Georgia Piccaninnies - Seidler's Orchester - Coontown's Ragtim
TTITLE10=e Dance (Honolulu [Hallelujah ?]
TTITLE11='Kaiser Franz' Garde-Grenadier-Regiment Nr.2, Leitg: Adolf Be
TTITLE11=cker - Cotton Blossoms
TTITLE12='Kaiser Franz' Garde-Grenadier-Regiment Nr.2, Leitg: Adolf Be
TTITLE12=cker - Dixie Girl
TTITLE13=Lyrophon-Orchester Berlin - Leitg: vermutl. Rudolph Thiele - C
TTITLE13=oontown Chimes (Original Cake Walk)
TTITLE14=Albert Müller, Xylophon - Seidler's Orchester - The Brooklyn C
TTITLE14=ake Walk
TTITLE15=Ernst Schneider (voc) - Orchester (vermutl. Büchner-Orchester)
TTITLE15=The Brooklyn Cake Walk [Im Automobil von Hamburg nach Kiel
TTITLE15=]
TTITLE16=Kalliope-Metallscheibe - The Brooklyn Cake Walk [Von Hamburg 
TTITLE16=nach Kiel - Automobil-Rheinländer]
TTITLE17=Zonophon-Orchester, Leitg: Bruno Seidler-Winkler - S. R. Henr
TTITLE17=y's Barn Dance
TTITLE18=Boston-Quartett, Leitg: Webster Norcross, Bajo-Imitation - Th
TTITLE18=e Old Folks At Home (Swanee River) [Der Schwanenfluß]
TTITLE19=Wolkowski Balalaika-Trio - Temptation Rag
TTITLE20=Mac Wills and N. Laurence, Pfeif-Duett mit Orchester - Dreams O
TTITLE20=f Ragtime
TTITLE21=Odeon-Tanz-Musik, Leitg evtl. Eduard Künneke - Black And Whit
TTITLE21=e
TTITLE22=ISI-Orchester - The Honolulu Rag
TTITLE23=ISI-Orchester - That Mysterious Rag [Geheimnis]
TTITLE24=Orchester, Leitg: evtl Carl Woitschach - Peaceful Henry (Ragt
TTITLE24=ime Twostep) [Der selige Heinrich]
TTITLE25=Orchester des 'Palais de Danse' Berlin, Leitg: Giogi Vintiles
TTITLE25=cu - The Whitewash Man (Coon character song) [The White Wash 
TTITLE25=Mau]
TTITLE26=anon. Piano-Roll - Eine fidele Negerhochzeit (Humoristischer 
TTITLE26=Cake Walk) [Nigger-Wedding]
TTITLE27=Globophon-Orchester - Dill Pickles (Ragtime Twostep)
TTITLE28=Orchester des 'Palais de Danse' Berlin, Leitg: Giogi Vintiles
TTITLE28=cu - Red Pepper (A spicy rag)
TTITLE29=Wolfgang Hoffmann - Some Smoke (Turkey Trot)
EXTD=YEAR: 2008
EXTT0=
EXTT1=
EXTT2=
EXTT3=
EXTT4=
EXTT5=
EXTT6=
EXTT7=
EXTT8=
EXTT9=
EXTT10=
EXTT11=
EXTT12=
EXTT13=
EXTT14=
EXTT15=
EXTT16=
EXTT17=
EXTT18=
EXTT19=
EXTT20=
EXTT21=
EXTT22=
EXTT23=
EXTT24=
EXTT25=
EXTT26=
EXTT27=
EXTT28=
EXTT29=
PLAYORDER=
